<svg xmlns="http://www.w3.org/2000/svg" viewBox="0 0 640 480" role="img" aria-labelledby="title desc">
  <title id="title">SpongeBob test avatar</title>
  <desc id="desc">A cheerful yellow sponge-inspired avatar for the test member card.</desc>
  <rect width="640" height="480" fill="#70c7d5"/>
  <circle cx="118" cy="86" r="48" fill="none" stroke="#ffffff" stroke-width="12" opacity="0.85"/>
  <circle cx="536" cy="392" r="58" fill="none" stroke="#ffffff" stroke-width="12" opacity="0.8"/>
  <rect x="178" y="54" width="284" height="332" rx="34" fill="#f8d949" stroke="#050505" stroke-width="10"/>
  <circle cx="236" cy="126" r="13" fill="#d4b436"/>
  <circle cx="407" cy="105" r="16" fill="#d4b436"/>
  <circle cx="211" cy="258" r="11" fill="#d4b436"/>
  <circle cx="424" cy="284" r="13" fill="#d4b436"/>
  <circle cx="277" cy="171" r="42" fill="#ffffff" stroke="#050505" stroke-width="8"/>
  <circle cx="363" cy="171" r="42" fill="#ffffff" stroke="#050505" stroke-width="8"/>
  <circle cx="286" cy="174" r="13" fill="#42a7d8" stroke="#050505" stroke-width="5"/>
  <circle cx="354" cy="174" r="13" fill="#42a7d8" stroke="#050505" stroke-width="5"/>
  <path d="M265 251c38 38 76 38 114 0" fill="none" stroke="#050505" stroke-width="10" stroke-linecap="round"/>
  <rect x="294" y="273" width="20" height="38" fill="#ffffff" stroke="#050505" stroke-width="6"/>
  <rect x="326" y="273" width="20" height="38" fill="#ffffff" stroke="#050505" stroke-width="6"/>
  <rect x="178" y="338" width="284" height="48" fill="#ffffff" stroke="#050505" stroke-width="10"/>
  <path d="M284 340l36 46 36-46" fill="#d71920" stroke="#050505" stroke-width="8" stroke-linejoin="round"/>
  <rect x="178" y="386" width="284" height="40" fill="#8b5a2b" stroke="#050505" stroke-width="10"/>
</svg>
